<mxfile host="app.diagrams.net" modified="2024-06-28T12:18:55.614Z" agent="Mozilla/5.0 (Macintosh; Intel Mac OS X 10.15; rv:127.0) Gecko/20100101 Firefox/127.0" etag="tmAZGORvZ1Q97HykXI1W" version="24.6.4" type="device">
  <diagram name="Modèle_de_données" id="feGtG9xd5nAWB7rmvMMO">
    <mxGraphModel dx="1394" dy="757" grid="1" gridSize="10" guides="1" tooltips="1" connect="1" arrows="1" fold="1" page="1" pageScale="1" pageWidth="827" pageHeight="1169" math="0" shadow="0">
      <root>
        <mxCell id="0" />
        <mxCell id="1" parent="0" />
        <mxCell id="nZ1ns9scEslLydAEAkAY-1" value="&lt;span style=&quot;font-weight: normal;&quot;&gt;&lt;font style=&quot;font-size: 12px;&quot;&gt;&amp;nbsp;PK uniqueId: INTEGER NOT NULL&lt;/font&gt;&lt;/span&gt;" style="swimlane;fontStyle=1;align=left;verticalAlign=top;childLayout=stackLayout;horizontal=1;startSize=26;horizontalStack=0;resizeParent=1;resizeParentMax=0;resizeLast=0;collapsible=1;marginBottom=0;whiteSpace=wrap;html=1;" vertex="1" parent="1">
          <mxGeometry x="300" y="1150" width="260" height="86" as="geometry">
            <mxRectangle y="542" width="120" height="30" as="alternateBounds" />
          </mxGeometry>
        </mxCell>
        <mxCell id="nZ1ns9scEslLydAEAkAY-2" value="email: VARCHAR(255) NOT NULL" style="text;strokeColor=none;fillColor=none;align=left;verticalAlign=top;spacingLeft=4;spacingRight=4;overflow=hidden;rotatable=0;points=[[0,0.5],[1,0.5]];portConstraint=eastwest;whiteSpace=wrap;html=1;" vertex="1" parent="nZ1ns9scEslLydAEAkAY-1">
          <mxGeometry y="26" width="260" height="26" as="geometry" />
        </mxCell>
        <mxCell id="nZ1ns9scEslLydAEAkAY-3" value="" style="line;strokeWidth=1;fillColor=none;align=left;verticalAlign=middle;spacingTop=-1;spacingLeft=3;spacingRight=3;rotatable=0;labelPosition=right;points=[];portConstraint=eastwest;strokeColor=inherit;" vertex="1" parent="nZ1ns9scEslLydAEAkAY-1">
          <mxGeometry y="52" width="260" height="8" as="geometry" />
        </mxCell>
        <mxCell id="nZ1ns9scEslLydAEAkAY-4" value="username: VARCHAR(255) NOT NULL" style="text;strokeColor=none;fillColor=none;align=left;verticalAlign=top;spacingLeft=4;spacingRight=4;overflow=hidden;rotatable=0;points=[[0,0.5],[1,0.5]];portConstraint=eastwest;whiteSpace=wrap;html=1;" vertex="1" parent="nZ1ns9scEslLydAEAkAY-1">
          <mxGeometry y="60" width="260" height="26" as="geometry" />
        </mxCell>
        <mxCell id="nZ1ns9scEslLydAEAkAY-5" value="user" style="text;html=1;strokeColor=none;fillColor=#CCE5FF;align=left;verticalAlign=middle;whiteSpace=wrap;rounded=0;labelBackgroundColor=#D4E1F5;" vertex="1" parent="1">
          <mxGeometry x="300" y="1120" width="260" height="30" as="geometry" />
        </mxCell>
        <mxCell id="nZ1ns9scEslLydAEAkAY-6" value="" style="edgeStyle=orthogonalEdgeStyle;rounded=0;orthogonalLoop=1;jettySize=auto;html=1;entryX=0;entryY=0.5;entryDx=0;entryDy=0;" edge="1" parent="1" target="nZ1ns9scEslLydAEAkAY-8">
          <mxGeometry relative="1" as="geometry">
            <Array as="points">
              <mxPoint x="690" y="1169" />
              <mxPoint x="690" y="1189" />
            </Array>
            <mxPoint x="560" y="1169" as="sourcePoint" />
            <mxPoint x="840" y="1188.9879999999998" as="targetPoint" />
          </mxGeometry>
        </mxCell>
        <mxCell id="nZ1ns9scEslLydAEAkAY-7" value="&lt;span style=&quot;font-weight: normal;&quot;&gt;&lt;font style=&quot;font-size: 12px;&quot;&gt;&amp;nbsp;PK uniqueId: INTEGER NOT NULL&lt;/font&gt;&lt;/span&gt;" style="swimlane;fontStyle=1;align=left;verticalAlign=top;childLayout=stackLayout;horizontal=1;startSize=26;horizontalStack=0;resizeParent=1;resizeParentMax=0;resizeLast=0;collapsible=1;marginBottom=0;whiteSpace=wrap;html=1;" vertex="1" parent="1">
          <mxGeometry x="850" y="1150" width="260" height="110" as="geometry">
            <mxRectangle y="542" width="120" height="30" as="alternateBounds" />
          </mxGeometry>
        </mxCell>
        <mxCell id="nZ1ns9scEslLydAEAkAY-8" value="FK id_user_id: INTEGER NULL" style="text;strokeColor=none;fillColor=none;align=left;verticalAlign=top;spacingLeft=4;spacingRight=4;overflow=hidden;rotatable=0;points=[[0,0.5],[1,0.5]];portConstraint=eastwest;whiteSpace=wrap;html=1;" vertex="1" parent="nZ1ns9scEslLydAEAkAY-7">
          <mxGeometry y="26" width="260" height="26" as="geometry" />
        </mxCell>
        <mxCell id="nZ1ns9scEslLydAEAkAY-9" value="" style="line;strokeWidth=1;fillColor=none;align=left;verticalAlign=middle;spacingTop=-1;spacingLeft=3;spacingRight=3;rotatable=0;labelPosition=right;points=[];portConstraint=eastwest;strokeColor=inherit;" vertex="1" parent="nZ1ns9scEslLydAEAkAY-7">
          <mxGeometry y="52" width="260" height="8" as="geometry" />
        </mxCell>
        <mxCell id="nZ1ns9scEslLydAEAkAY-10" value="title: VARCHAR(255) NOT NULL" style="text;strokeColor=none;fillColor=none;align=left;verticalAlign=top;spacingLeft=4;spacingRight=4;overflow=hidden;rotatable=0;points=[[0,0.5],[1,0.5]];portConstraint=eastwest;whiteSpace=wrap;html=1;" vertex="1" parent="nZ1ns9scEslLydAEAkAY-7">
          <mxGeometry y="60" width="260" height="26" as="geometry" />
        </mxCell>
        <mxCell id="nZ1ns9scEslLydAEAkAY-11" value="&lt;span style=&quot;font-weight: normal;&quot;&gt;&lt;font style=&quot;font-size: 12px;&quot;&gt;&amp;nbsp; content: LONGTEXT&lt;/font&gt; NOT NULL&lt;/span&gt;" style="swimlane;fontStyle=1;align=left;verticalAlign=top;childLayout=stackLayout;horizontal=1;startSize=26;horizontalStack=0;resizeParent=1;resizeParentMax=0;resizeLast=0;collapsible=1;marginBottom=0;whiteSpace=wrap;html=1;" vertex="1" parent="nZ1ns9scEslLydAEAkAY-7">
          <mxGeometry y="86" width="260" height="24" as="geometry">
            <mxRectangle y="542" width="120" height="30" as="alternateBounds" />
          </mxGeometry>
        </mxCell>
        <mxCell id="nZ1ns9scEslLydAEAkAY-12" value="task" style="text;html=1;strokeColor=none;fillColor=#E1D5E7;align=left;verticalAlign=middle;whiteSpace=wrap;rounded=0;labelBackgroundColor=#D4E1F5;" vertex="1" parent="1">
          <mxGeometry x="850" y="1120" width="260" height="30" as="geometry" />
        </mxCell>
        <mxCell id="nZ1ns9scEslLydAEAkAY-13" value="roles: JSON NOT NULL" style="text;strokeColor=none;fillColor=none;align=left;verticalAlign=top;spacingLeft=4;spacingRight=4;overflow=hidden;rotatable=0;points=[[0,0.5],[1,0.5]];portConstraint=eastwest;whiteSpace=wrap;html=1;" vertex="1" parent="1">
          <mxGeometry x="300" y="1263" width="260" height="26" as="geometry" />
        </mxCell>
        <mxCell id="nZ1ns9scEslLydAEAkAY-14" value="&lt;span style=&quot;font-weight: normal;&quot;&gt;&lt;font style=&quot;font-size: 12px;&quot;&gt;&amp;nbsp;password VARCHAR (255)&lt;/font&gt; NOT NULL&lt;/span&gt;" style="swimlane;fontStyle=1;align=left;verticalAlign=top;childLayout=stackLayout;horizontal=1;startSize=26;horizontalStack=0;resizeParent=1;resizeParentMax=0;resizeLast=0;collapsible=1;marginBottom=0;whiteSpace=wrap;html=1;" vertex="1" parent="1">
          <mxGeometry x="300" y="1237" width="260" height="52" as="geometry">
            <mxRectangle y="542" width="120" height="30" as="alternateBounds" />
          </mxGeometry>
        </mxCell>
        <mxCell id="nZ1ns9scEslLydAEAkAY-15" value="" style="shape=waypoint;sketch=0;size=6;pointerEvents=1;points=[];fillColor=default;resizable=0;rotatable=0;perimeter=centerPerimeter;snapToPoint=1;align=left;verticalAlign=top;fontStyle=1;startSize=30;" vertex="1" parent="1">
          <mxGeometry x="840" y="1150" width="20" height="20" as="geometry" />
        </mxCell>
        <mxCell id="nZ1ns9scEslLydAEAkAY-16" value="&lt;span style=&quot;font-weight: normal;&quot;&gt;&lt;font style=&quot;font-size: 12px;&quot;&gt;&amp;nbsp;is_done: BOOLEAN&lt;/font&gt; NOT NULL&lt;/span&gt;" style="swimlane;fontStyle=1;align=left;verticalAlign=top;childLayout=stackLayout;horizontal=1;startSize=30;horizontalStack=0;resizeParent=1;resizeParentMax=0;resizeLast=0;collapsible=1;marginBottom=0;whiteSpace=wrap;html=1;" vertex="1" parent="1">
          <mxGeometry x="850" y="1260" width="260" height="30" as="geometry">
            <mxRectangle x="300" y="1690" width="120" height="30" as="alternateBounds" />
          </mxGeometry>
        </mxCell>
        <mxCell id="nZ1ns9scEslLydAEAkAY-17" value="Modèle de données" style="rounded=1;whiteSpace=wrap;html=1;" vertex="1" parent="1">
          <mxGeometry x="540" y="1040" width="340" height="60" as="geometry" />
        </mxCell>
        <mxCell id="nZ1ns9scEslLydAEAkAY-18" value="&lt;span style=&quot;font-weight: normal;&quot;&gt;&lt;font style=&quot;font-size: 12px;&quot;&gt;&amp;nbsp;created_at: DATETIME&lt;/font&gt; NOT NULL&lt;/span&gt;" style="swimlane;fontStyle=1;align=left;verticalAlign=top;childLayout=stackLayout;horizontal=1;startSize=30;horizontalStack=0;resizeParent=1;resizeParentMax=0;resizeLast=0;collapsible=1;marginBottom=0;whiteSpace=wrap;html=1;" vertex="1" parent="1">
          <mxGeometry x="850" y="1289" width="260" height="30" as="geometry">
            <mxRectangle x="300" y="1690" width="120" height="30" as="alternateBounds" />
          </mxGeometry>
        </mxCell>
      </root>
    </mxGraphModel>
  </diagram>
</mxfile>
